<?xml version="1.0" standalone="no"?>
<!DOCTYPE svg PUBLIC "-//W3C//DTD SVG 20010904//EN"
 "http://www.w3.org/TR/2001/REC-SVG-20010904/DTD/svg10.dtd">
<svg version="1.0" xmlns="http://www.w3.org/2000/svg"
 width="50.000000pt" height="50.000000pt" viewBox="0 0 50.000000 50.000000"
 preserveAspectRatio="xMidYMid meet">

<g transform="translate(0.000000,50.000000) scale(0.100000,-0.100000)"
fill="#000000" stroke="none">
<path d="M79 431 l-29 -29 0 -157 0 -157 29 -29 29 -29 142 0 142 0 29 29 29
29 0 157 0 157 -29 29 -29 29 -142 0 -142 0 -29 -29z m217 -92 c18 -20 18 -22
1 -50 -15 -28 -15 -33 -2 -60 9 -16 11 -29 6 -29 -6 0 -17 14 -26 30 -9 18
-23 30 -35 30 -16 0 -20 -7 -20 -30 0 -16 -4 -30 -10 -30 -6 0 -10 33 -10 80
l0 80 38 0 c27 0 45 -7 58 -21z m-46 -239 c106 0 140 3 158 16 21 14 22 14 22
-5 0 -12 -9 -30 -20 -41 -18 -18 -33 -20 -160 -20 -127 0 -142 2 -160 20 -11
11 -20 29 -20 41 0 19 1 19 22 5 18 -13 52 -16 158 -16z"/>
<path d="M220 310 c0 -25 4 -30 24 -30 13 0 29 6 35 14 18 22 2 46 -30 46 -26
0 -29 -4 -29 -30z"/>
</g>
</svg>
